<svg version="1.1" xmlns="http://www.w3.org/2000/svg" style="display: block;" viewBox="0 0 2000 2000" width="500" height="500" preserveAspectRatio="none">
<path transform="translate(0,0)" fill="rgb(248,248,240)" d="M 955.836 2.00148 C 967.802 3.22208 979.994 1.43198 992.002 1.43822 C 1003.75 1.44431 1015.83 3.32192 1027.5 1.98709 C 1038.42 1.56194 1049.58 3.26298 1060.5 3.91138 C 1074.37 4.73582 1088.24 4.90993 1102.1 6.14937 C 1126.86 8.36383 1150.84 12.4614 1175.21 17.1776 C 1358.37 51.6226 1527.9 137.639 1663.86 265.116 C 1858.43 446.375 1973.42 697.232 1983.72 962.951 C 1993.62 1226.73 1899.1 1483.77 1720.68 1678.31 C 1579.74 1831.79 1394.35 1937.39 1190.44 1980.32 C 1161.51 1986.46 1131.63 1991.16 1102.17 1993.88 C 1083.08 1995.64 1049.45 1994.61 1032.66 2000 L 952.259 2000 C 933.442 1993.59 901.338 1995.64 880.571 1993.61 C 851.139 1990.74 820.59 1985.37 791.645 1979.2 C 586.824 1936.38 400.797 1829.86 260.184 1674.9 C 134.311 1536.55 49.8061 1365.64 16.2879 1181.62 C 9.73182 1147.07 5.63152 1113.85 3.55584 1078.75 C 2.89058 1067.5 1.55081 1055.81 2.01922 1044.56 C 3.78374 1030.28 0.821974 1015.33 0.89051 1000.96 C 0.95143 988.189 3.29624 975.355 1.99761 962.607 C 1.88254 960.412 1.8515 958.213 1.90455 956.015 C 9.0354 749.743 80.6416 550.895 206.653 387.433 C 244.936 338.142 288.344 294.057 333.476 251.09 C 365.496 220.607 402.103 193.366 438.785 168.884 C 553.452 91.6273 683.095 39.3719 819.286 15.5157 C 853.241 9.30263 884.892 5.92486 919.293 3.83026 C 931.36 3.09555 943.764 1.71661 955.836 2.00148 z"/>
<path transform="translate(0,0)" fill="rgb(0,0,0)" d="M 570.483 515.614 C 573.773 515.744 576.072 517.623 578.611 519.503 C 593.399 530.449 607.433 542.845 621.573 554.622 L 703.922 623.914 L 941.236 823.464 C 960.177 839.384 978.103 856.804 998.102 871.392 C 1010.12 865.003 1020.95 854.12 1031.31 845.282 C 1047.08 831.714 1062.95 818.256 1078.9 804.908 L 1338.39 587.689 C 1356.42 572.142 1374.59 556.752 1392.9 541.521 C 1403.48 532.71 1414.6 521.603 1427.05 515.633 C 1436.02 520.571 1444.11 528.069 1452.19 534.354 C 1469.6 547.685 1486.78 561.312 1503.72 575.228 C 1506.02 596.756 1504.74 619.287 1504.74 640.958 L 1504.81 756.98 L 1504.89 1073.51 C 1504.89 1126.83 1503.59 1180.47 1505.09 1233.75 C 1480.12 1214.59 1455.89 1194.67 1431.31 1175.06 C 1410.3 1158.3 1388.8 1142.25 1369.09 1123.94 C 1367.41 1094.43 1369.9 1064.79 1368.09 1035.29 C 1342.72 1009.72 1315.01 986.629 1290.48 960.211 C 1314.08 935.745 1336.61 906.656 1368.5 892.919 C 1369.57 868.266 1368.89 843.392 1368.9 818.704 C 1368.92 787.152 1369.48 755.559 1367.67 724.046 C 1350.34 734.407 1335.3 750.624 1320.46 764.282 C 1304.85 778.494 1289.16 792.624 1273.41 806.67 C 1239.7 837.048 1206.16 867.625 1172.81 898.4 C 1150.27 918.801 1125.36 938.103 1106.2 961.815 C 1121.34 980.59 1140.2 996.644 1157.8 1013.06 L 1220.29 1071.73 L 1412.87 1249.55 L 1465.88 1298.04 C 1478.52 1309.47 1492.83 1320.78 1503.66 1333.89 C 1506.69 1357.67 1504.87 1383.22 1504.89 1407.27 C 1504.91 1428.03 1506.82 1450.74 1503.78 1471.18 C 1495.82 1480.72 1484.8 1488.38 1475.32 1496.36 C 1460.48 1508.85 1445.88 1521.59 1430.79 1533.78 C 1409.71 1549.67 1390.08 1567.62 1369.73 1584.42 C 1324.47 1621.2 1279.53 1658.37 1234.92 1695.91 L 1087.25 1818.76 C 1058.13 1843.08 1027.72 1866.82 1000.09 1892.81 C 987.502 1880.52 972.323 1869.68 958.824 1858.3 C 927.412 1831.41 895.734 1804.83 863.794 1778.57 L 604.024 1561.88 C 578.568 1540.47 552.524 1519.81 527.126 1498.31 C 516.834 1489.59 505.687 1481.42 496.326 1471.7 C 493.636 1457.36 493.501 1346.95 496.373 1332.32 C 505.249 1322.38 516.1 1313.31 525.924 1304.24 L 589.253 1246.89 C 627.61 1211.55 665.757 1175.99 703.692 1140.2 L 798.219 1052.49 C 829.733 1022.75 865.306 994.362 893.116 961.165 C 881.253 950.358 870.426 938.254 858.606 927.325 C 805.692 878.228 752.264 829.686 698.332 781.71 C 681.235 766.34 650.588 734.537 632.478 725.069 C 629.584 749.332 630.934 774.815 630.899 799.261 C 630.854 829.971 630.013 860.947 631.341 891.621 C 659.647 912.207 684.39 935.376 709.28 959.905 C 686.357 988.237 653.322 1008.5 631.166 1036.65 C 629.553 1065.64 632.102 1094.83 630.529 1123.85 C 616.186 1140.53 596.718 1153.35 579.654 1167.14 C 551.59 1189.84 523.926 1213.32 494.401 1234.12 C 496.119 1214.59 494.919 1194.13 494.874 1174.5 L 494.611 1064.24 L 494.643 729.3 L 494.567 632.949 C 494.563 617.024 493.26 599.741 495.134 583.972 C 495.56 580.383 496.095 576.872 498.362 573.961 C 505.076 565.342 516.509 558.117 525.132 551.315 L 570.483 515.614 z"/>
<path transform="translate(0,0)" fill="rgb(248,248,240)" d="M 922.243 1117.87 L 923.351 1118.37 C 925.419 1124.74 923.855 1187.69 923.867 1199.97 L 923.949 1343.46 C 923.957 1372.23 924.961 1401.37 922.941 1430.07 C 906.557 1417.81 891.461 1403.98 876.105 1390.49 C 860.365 1376.88 844.556 1363.36 828.677 1349.92 C 802.316 1325.67 773.821 1303.78 747.717 1279.23 C 759.04 1264.32 773.294 1251.98 787.028 1239.36 L 834.879 1195.84 C 863.759 1169.69 891.69 1142.05 922.243 1117.87 z"/>
<path transform="translate(0,0)" fill="rgb(248,248,240)" d="M 1075.92 1116.47 C 1093.01 1127.08 1119.67 1155.54 1135.48 1170.01 C 1174.12 1205.37 1216.17 1239.97 1251.38 1278.73 C 1225.96 1303.08 1198.86 1325.83 1172.35 1348.99 C 1157.93 1361.28 1143.28 1373.29 1129.03 1385.78 C 1111.53 1401.11 1094.48 1416.83 1075.98 1430.96 C 1074.74 1326.19 1075.76 1221.26 1075.92 1116.47 z"/>
<path transform="translate(0,0)" fill="rgb(248,248,240)" d="M 1364.32 1361.9 C 1364.98 1362.05 1365.47 1362.62 1366.02 1363.01 C 1368.46 1376.23 1367.85 1401.61 1365.72 1414.95 C 1355.03 1425.75 1342.23 1435.02 1330.45 1444.62 C 1313.48 1458.5 1296.64 1472.55 1279.93 1486.75 L 1077.25 1657.16 L 1075.91 1657.63 C 1073.2 1652.59 1075.17 1613.2 1075.24 1604.6 C 1085.15 1594.73 1096.31 1586.18 1106.97 1577.14 C 1130.12 1557.53 1153.68 1538.37 1176.69 1518.6 L 1270.61 1439.34 C 1299.51 1414.5 1333.52 1383.7 1364.32 1361.9 z"/>
<path transform="translate(0,0)" fill="rgb(248,248,240)" d="M 635.094 1361.51 C 645.254 1367.42 655.141 1377.18 664.162 1384.77 L 714.316 1426.88 L 924 1604.44 C 924.231 1621.63 926.151 1641.34 923.258 1658.19 C 910.454 1645.07 894.607 1633.54 880.531 1621.76 L 808.762 1561.25 C 750.249 1512.77 692.852 1463.01 634.07 1414.84 C 633.288 1397.55 632.758 1378.66 635.094 1361.51 z"/>
<path transform="translate(0,0)" fill="rgb(0,0,0)" d="M 997.399 176.84 C 1000.87 177.357 1003.69 179.671 1006.45 181.711 C 1016.55 189.186 1026.09 197.63 1035.91 205.484 L 1102.02 258.38 L 1261.8 385.618 L 1315.87 429.225 C 1324.95 436.56 1333.63 444.828 1343.38 451.233 C 1332.49 457.189 1322.56 466.805 1312.92 474.688 L 1252.66 524.206 L 1110.49 639.514 C 1073.79 669.167 1036.5 698.375 1000.64 729.027 L 998.469 729.46 C 986.46 718.691 973.698 708.942 961.233 698.711 L 892.76 642.382 L 656.965 449.885 C 673.776 438.363 689.589 424.048 705.49 411.235 L 784.715 348.02 C 856.091 291.561 926.989 234.499 997.399 176.84 z"/>
<path transform="translate(0,0)" fill="rgb(248,248,240)" d="M 998.339 326.029 C 1009.79 331.053 1036.99 354.59 1048.19 363.188 L 1101.96 404.704 C 1115.22 414.807 1128.9 424.511 1141.73 435.149 C 1148.19 440.498 1154.11 446.13 1159.78 452.307 C 1144.39 468.236 1125.76 481.541 1108.34 495.159 C 1072.24 523.379 1034.95 550.433 1000.13 580.217 L 998.265 580.65 C 966.295 554.584 933.998 528.922 901.382 503.67 C 880.903 487.647 856.035 471.729 839.558 451.633 C 850.99 438.087 866.921 426.901 880.92 416.109 L 934.88 374.591 C 955.552 358.491 975.931 339.43 998.339 326.029 z"/>
<path transform="translate(0,0)" fill="rgb(248,248,240)" fill-opacity="0.921569" d="M 0 970.168 L 1.99761 962.607 C 3.29624 975.355 0.95143 988.189 0.89051 1000.96 C 0.821974 1015.33 3.78374 1030.28 2.01922 1044.56 L 0 1036.66 L 0 970.168 z"/>
<path transform="translate(0,0)" fill="rgb(248,248,240)" fill-opacity="0.905882" d="M 964.385 0 L 1018.53 0 L 1027.5 1.98709 C 1015.83 3.32192 1003.75 1.44431 992.002 1.43822 C 979.994 1.43198 967.802 3.22208 955.836 2.00148 L 964.385 0 z"/>
</svg>